<svg width="232" height="25" viewBox="0 0 232 25" fill="none" xmlns="http://www.w3.org/2000/svg">
<path d="M0.0227273 24V0.727272H15.4318V4.78409H4.94318V10.3295H14.4091V14.3864H4.94318V24H0.0227273ZM18.7415 24V0.727272H27.9233C29.6809 0.727272 31.1809 1.04167 32.4233 1.67045C33.6733 2.29167 34.6241 3.17424 35.2756 4.31818C35.9347 5.45454 36.2642 6.79167 36.2642 8.32955C36.2642 9.875 35.9309 11.2045 35.2642 12.3182C34.5975 13.4242 33.6316 14.2727 32.3665 14.8636C31.1089 15.4545 29.5862 15.75 27.7983 15.75H21.6506V11.7955H27.0028C27.9422 11.7955 28.7225 11.6667 29.3438 11.4091C29.965 11.1515 30.4271 10.7652 30.7301 10.25C31.0407 9.73485 31.196 9.0947 31.196 8.32955C31.196 7.55682 31.0407 6.9053 30.7301 6.375C30.4271 5.8447 29.9612 5.44318 29.3324 5.17045C28.7112 4.89015 27.9271 4.75 26.9801 4.75H23.6619V24H18.7415ZM31.3097 13.4091L37.0938 24H31.6619L26.0028 13.4091H31.3097ZM61.1278 12.3636C61.1278 14.9015 60.6468 17.0606 59.6847 18.8409C58.7301 20.6212 57.4271 21.9811 55.7756 22.9205C54.1316 23.8523 52.2831 24.3182 50.2301 24.3182C48.1619 24.3182 46.3059 23.8485 44.6619 22.9091C43.018 21.9697 41.7188 20.6098 40.7642 18.8295C39.8097 17.0492 39.3324 14.8939 39.3324 12.3636C39.3324 9.82576 39.8097 7.66667 40.7642 5.88636C41.7188 4.10606 43.018 2.75 44.6619 1.81818C46.3059 0.878787 48.1619 0.40909 50.2301 0.40909C52.2831 0.40909 54.1316 0.878787 55.7756 1.81818C57.4271 2.75 58.7301 4.10606 59.6847 5.88636C60.6468 7.66667 61.1278 9.82576 61.1278 12.3636ZM56.1392 12.3636C56.1392 10.7197 55.893 9.33333 55.4006 8.20455C54.9157 7.07576 54.2301 6.2197 53.3438 5.63636C52.4574 5.05303 51.4195 4.76136 50.2301 4.76136C49.0407 4.76136 48.0028 5.05303 47.1165 5.63636C46.2301 6.2197 45.5407 7.07576 45.0483 8.20455C44.5634 9.33333 44.321 10.7197 44.321 12.3636C44.321 14.0076 44.5634 15.3939 45.0483 16.5227C45.5407 17.6515 46.2301 18.5076 47.1165 19.0909C48.0028 19.6742 49.0407 19.9659 50.2301 19.9659C51.4195 19.9659 52.4574 19.6742 53.3438 19.0909C54.2301 18.5076 54.9157 17.6515 55.4006 16.5227C55.893 15.3939 56.1392 14.0076 56.1392 12.3636ZM64.7727 0.727272H70.8409L77.25 16.3636H77.5227L83.9318 0.727272H90V24H85.2273V8.85227H85.0341L79.0114 23.8864H75.7614L69.7386 8.79545H69.5455V24H64.7727V0.727272ZM101.46 24V0.727272H110.642C112.4 0.727272 113.9 1.04167 115.142 1.67045C116.392 2.29167 117.343 3.17424 117.994 4.31818C118.653 5.45454 118.983 6.79167 118.983 8.32955C118.983 9.875 118.65 11.2045 117.983 12.3182C117.316 13.4242 116.35 14.2727 115.085 14.8636C113.828 15.4545 112.305 15.75 110.517 15.75H104.369V11.7955H109.722C110.661 11.7955 111.441 11.6667 112.062 11.4091C112.684 11.1515 113.146 10.7652 113.449 10.25C113.759 9.73485 113.915 9.0947 113.915 8.32955C113.915 7.55682 113.759 6.9053 113.449 6.375C113.146 5.8447 112.68 5.44318 112.051 5.17045C111.43 4.89015 110.646 4.75 109.699 4.75H106.381V24H101.46ZM114.028 13.4091L119.812 24H114.381L108.722 13.4091H114.028ZM122.46 24V0.727272H138.142V4.78409H127.381V10.3295H137.335V14.3864H127.381V19.9432H138.188V24H122.46ZM146.065 24H140.793L148.827 0.727272H155.168L163.19 24H157.918L152.088 6.04545H151.906L146.065 24ZM145.736 14.8523H158.19V18.6932H145.736V14.8523ZM165.991 24V0.727272H170.912V19.9432H180.889V24H165.991ZM184.148 0.727272H190.216L196.625 16.3636H196.898L203.307 0.727272H209.375V24H204.602V8.85227H204.409L198.386 23.8864H195.136L189.114 8.79545H188.92V24H184.148V0.727272ZM226.054 7.42045C225.963 6.50379 225.573 5.79167 224.884 5.28409C224.194 4.77651 223.259 4.52273 222.077 4.52273C221.274 4.52273 220.596 4.63636 220.043 4.86364C219.49 5.08333 219.065 5.39015 218.77 5.78409C218.482 6.17803 218.338 6.625 218.338 7.125C218.323 7.54167 218.41 7.9053 218.599 8.21591C218.796 8.52652 219.065 8.79545 219.406 9.02273C219.747 9.24242 220.141 9.43561 220.588 9.60227C221.035 9.76136 221.512 9.89773 222.02 10.0114L224.111 10.5114C225.126 10.7386 226.058 11.0417 226.906 11.4205C227.755 11.7992 228.49 12.2652 229.111 12.8182C229.732 13.3712 230.213 14.0227 230.554 14.7727C230.902 15.5227 231.08 16.3826 231.088 17.3523C231.08 18.7765 230.717 20.0114 229.997 21.0568C229.285 22.0947 228.255 22.9015 226.906 23.4773C225.565 24.0455 223.948 24.3295 222.054 24.3295C220.175 24.3295 218.539 24.0417 217.145 23.4659C215.759 22.8902 214.675 22.0379 213.895 20.9091C213.122 19.7727 212.717 18.3674 212.679 16.6932H217.44C217.493 17.4735 217.717 18.125 218.111 18.6477C218.512 19.1629 219.046 19.553 219.713 19.8182C220.387 20.0758 221.149 20.2045 221.997 20.2045C222.83 20.2045 223.554 20.0833 224.168 19.8409C224.789 19.5985 225.27 19.2614 225.611 18.8295C225.952 18.3977 226.122 17.9015 226.122 17.3409C226.122 16.8182 225.967 16.3788 225.656 16.0227C225.353 15.6667 224.906 15.3636 224.315 15.1136C223.732 14.8636 223.016 14.6364 222.168 14.4318L219.634 13.7955C217.671 13.3182 216.122 12.572 214.986 11.5568C213.849 10.5417 213.285 9.17424 213.293 7.45454C213.285 6.04545 213.66 4.81439 214.418 3.76136C215.183 2.70833 216.232 1.88636 217.565 1.29545C218.899 0.704545 220.414 0.40909 222.111 0.40909C223.838 0.40909 225.346 0.704545 226.634 1.29545C227.929 1.88636 228.937 2.70833 229.656 3.76136C230.376 4.81439 230.747 6.03409 230.77 7.42045H226.054Z" fill="white"/>
</svg>
